{"asset":{"version":"2.0","generator":"td-procedural-tower-gen"},"scene":0,"scenes":[{"nodes":[0]}],"nodes":[{"name":"ArcCoil","mesh":0}],"meshes":[{"name":"ArcCoil","primitives":[{"attributes":{"POSITION":0,"NORMAL":1},"indices":2,"material":0},{"attributes":{"POSITION":3,"NORMAL":4},"indices":5,"material":1},{"attributes":{"POSITION":6,"NORMAL":7},"indices":8,"material":2}]}],"materials":[{"name":"ArcCoil_mat0","pbrMetallicRoughness":{"baseColorFactor":[0.13725490196078433,0.18823529411764706,0.22745098039215686,1],"metallicFactor":0.2,"roughnessFactor":0.8},"emissiveFactor":[0,0,0]},{"name":"ArcCoil_mat1","pbrMetallicRoughness":{"baseColorFactor":[0.1843137254901961,0.37254901960784315,0.43137254901960786,1],"metallicFactor":0.5,"roughnessFactor":0.4},"emissiveFactor":[0,0,0]},{"name":"ArcCoil_mat2","pbrMetallicRoughness":{"baseColorFactor":[0.4,0.8784313725490196,1,1],"metallicFactor":0.3,"roughnessFactor":0.2},"emissiveFactor":[0.10980392156862745,0.3333333333333333,0.4]}],"accessors":[{"bufferView":0,"componentType":5126,"count":144,"type":"VEC3","min":[-0.8,0,-0.8],"max":[0.8,0.3,0.8]},{"bufferView":1,"componentType":5126,"count":144,"type":"VEC3"},{"bufferView":2,"componentType":5123,"count":144,"type":"SCALAR"},{"bufferView":3,"componentType":5126,"count":144,"type":"VEC3","min":[-0.45,0.3,-0.45],"max":[0.45,1.3,0.45]},{"bufferView":4,"componentType":5126,"count":144,"type":"VEC3"},{"bufferView":5,"componentType":5123,"count":144,"type":"SCALAR"},{"bufferView":6,"componentType":5126,"count":144,"type":"VEC3","min":[-0.5,1.3,-0.5],"max":[0.5,1.85,0.5]},{"bufferView":7,"componentType":5126,"count":144,"type":"VEC3"},{"bufferView":8,"componentType":5123,"count":144,"type":"SCALAR"}],"bufferViews":[{"buffer":0,"byteOffset":0,"byteLength":1728,"target":34962},{"buffer":0,"byteOffset":1728,"byteLength":1728,"target":34962},{"buffer":0,"byteOffset":3456,"byteLength":288,"target":34963},{"buffer":0,"byteOffset":3744,"byteLength":1728,"target":34962},{"buffer":0,"byteOffset":5472,"byteLength":1728,"target":34962},{"buffer":0,"byteOffset":7200,"byteLength":288,"target":34963},{"buffer":0,"byteOffset":7488,"byteLength":1728,"target":34962},{"buffer":0,"byteOffset":9216,"byteLength":1728,"target":34962},{"buffer":0,"byteOffset":10944,"byteLength":288,"target":34963}],"buffers":[{"byteLength":11232,"uri":"data:application/octet-stream;base64,"}]}