{"asset":{"version":"2.0","generator":"td-procedural-tower-gen"},"scene":0,"scenes":[{"nodes":[0]}],"nodes":[{"name":"Bastion","mesh":0}],"meshes":[{"name":"Bastion","primitives":[{"attributes":{"POSITION":0,"NORMAL":1},"indices":2,"material":0},{"attributes":{"POSITION":3,"NORMAL":4},"indices":5,"material":1},{"attributes":{"POSITION":6,"NORMAL":7},"indices":8,"material":2}]}],"materials":[{"name":"Bastion_mat0","pbrMetallicRoughness":{"baseColorFactor":[0.22745098039215686,0.25882352941176473,0.3215686274509804,1],"metallicFactor":0.2,"roughnessFactor":0.9},"emissiveFactor":[0,0,0]},{"name":"Bastion_mat1","pbrMetallicRoughness":{"baseColorFactor":[0.2901960784313726,0.3333333333333333,0.40784313725490196,1],"metallicFactor":0.2,"roughnessFactor":0.8},"emissiveFactor":[0,0,0]},{"name":"Bastion_mat2","pbrMetallicRoughness":{"baseColorFactor":[0.35294117647058826,0.39215686274509803,0.47058823529411764,1],"metallicFactor":0.2,"roughnessFactor":0.75},"emissiveFactor":[0,0,0]}],"accessors":[{"bufferView":0,"componentType":5126,"count":144,"type":"VEC3","min":[-0.85,0,-0.85],"max":[0.85,0.35,0.85]},{"bufferView":1,"componentType":5126,"count":144,"type":"VEC3"},{"bufferView":2,"componentType":5123,"count":144,"type":"SCALAR"},{"bufferView":3,"componentType":5126,"count":144,"type":"VEC3","min":[-0.62,0.35,-0.62],"max":[0.62,1.15,0.62]},{"bufferView":4,"componentType":5126,"count":144,"type":"VEC3"},{"bufferView":5,"componentType":5123,"count":144,"type":"SCALAR"},{"bufferView":6,"componentType":5126,"count":396,"type":"VEC3","min":[-0.7,1.15,-0.7],"max":[0.71,1.65,0.7]},{"bufferView":7,"componentType":5126,"count":396,"type":"VEC3"},{"bufferView":8,"componentType":5123,"count":396,"type":"SCALAR"}],"bufferViews":[{"buffer":0,"byteOffset":0,"byteLength":1728,"target":34962},{"buffer":0,"byteOffset":1728,"byteLength":1728,"target":34962},{"buffer":0,"byteOffset":3456,"byteLength":288,"target":34963},{"buffer":0,"byteOffset":3744,"byteLength":1728,"target":34962},{"buffer":0,"byteOffset":5472,"byteLength":1728,"target":34962},{"buffer":0,"byteOffset":7200,"byteLength":288,"target":34963},{"buffer":0,"byteOffset":7488,"byteLength":4752,"target":34962},{"buffer":0,"byteOffset":12240,"byteLength":4752,"target":34962},{"buffer":0,"byteOffset":16992,"byteLength":792,"target":34963}],"buffers":[{"byteLength":17784,"uri":"data:application/octet-stream;base64,"}]}