{"asset":{"version":"2.0","generator":"td-procedural-tower-gen"},"scene":0,"scenes":[{"nodes":[0]}],"nodes":[{"name":"Bunker","mesh":0}],"meshes":[{"name":"Bunker","primitives":[{"attributes":{"POSITION":0,"NORMAL":1},"indices":2,"material":0},{"attributes":{"POSITION":3,"NORMAL":4},"indices":5,"material":1},{"attributes":{"POSITION":6,"NORMAL":7},"indices":8,"material":2}]}],"materials":[{"name":"Bunker_mat0","pbrMetallicRoughness":{"baseColorFactor":[0.2,0.25098039215686274,0.1843137254901961,1],"metallicFactor":0.2,"roughnessFactor":0.9},"emissiveFactor":[0,0,0]},{"name":"Bunker_mat1","pbrMetallicRoughness":{"baseColorFactor":[0.27450980392156865,0.34509803921568627,0.1843137254901961,1],"metallicFactor":0.2,"roughnessFactor":0.8},"emissiveFactor":[0,0,0]},{"name":"Bunker_mat2","pbrMetallicRoughness":{"baseColorFactor":[0.4,1,0.6,1],"metallicFactor":0.3,"roughnessFactor":0.4},"emissiveFactor":[0.12156862745098039,0.22745098039215686,0.14901960784313725]}],"accessors":[{"bufferView":0,"componentType":5126,"count":36,"type":"VEC3","min":[-0.75,0,-0.75],"max":[0.75,0.4,0.75]},{"bufferView":1,"componentType":5126,"count":36,"type":"VEC3"},{"bufferView":2,"componentType":5123,"count":36,"type":"SCALAR"},{"bufferView":3,"componentType":5126,"count":36,"type":"VEC3","min":[-0.45,0.4,-0.45],"max":[0.45,0.9,0.45]},{"bufferView":4,"componentType":5126,"count":36,"type":"VEC3"},{"bufferView":5,"componentType":5123,"count":36,"type":"SCALAR"},{"bufferView":6,"componentType":5126,"count":132,"type":"VEC3","min":[-0.18,0.55,-0.18],"max":[0.18,0.75,1.05]},{"bufferView":7,"componentType":5126,"count":132,"type":"VEC3"},{"bufferView":8,"componentType":5123,"count":132,"type":"SCALAR"}],"bufferViews":[{"buffer":0,"byteOffset":0,"byteLength":432,"target":34962},{"buffer":0,"byteOffset":432,"byteLength":432,"target":34962},{"buffer":0,"byteOffset":864,"byteLength":72,"target":34963},{"buffer":0,"byteOffset":936,"byteLength":432,"target":34962},{"buffer":0,"byteOffset":1368,"byteLength":432,"target":34962},{"buffer":0,"byteOffset":1800,"byteLength":72,"target":34963},{"buffer":0,"byteOffset":1872,"byteLength":1584,"target":34962},{"buffer":0,"byteOffset":3456,"byteLength":1584,"target":34962},{"buffer":0,"byteOffset":5040,"byteLength":264,"target":34963}],"buffers":[{"byteLength":5304,"uri":"data:application/octet-stream;base64,"}]}