{"asset":{"version":"2.0","generator":"td-procedural-tower-gen"},"scene":0,"scenes":[{"nodes":[0]}],"nodes":[{"name":"Spire","mesh":0}],"meshes":[{"name":"Spire","primitives":[{"attributes":{"POSITION":0,"NORMAL":1},"indices":2,"material":0},{"attributes":{"POSITION":3,"NORMAL":4},"indices":5,"material":1},{"attributes":{"POSITION":6,"NORMAL":7},"indices":8,"material":2}]}],"materials":[{"name":"Spire_mat0","pbrMetallicRoughness":{"baseColorFactor":[0.16470588235294117,0.1450980392156863,0.25098039215686274,1],"metallicFactor":0.2,"roughnessFactor":0.8},"emissiveFactor":[0,0,0]},{"name":"Spire_mat1","pbrMetallicRoughness":{"baseColorFactor":[0.2901960784313726,0.22745098039215686,0.43137254901960786,1],"metallicFactor":0.4,"roughnessFactor":0.5},"emissiveFactor":[0,0,0]},{"name":"Spire_mat2","pbrMetallicRoughness":{"baseColorFactor":[1,0.4196078431372549,0.615686274509804,1],"metallicFactor":0.2,"roughnessFactor":0.25},"emissiveFactor":[0.35294117647058826,0.1450980392156863,0.25098039215686274]}],"accessors":[{"bufferView":0,"componentType":5126,"count":96,"type":"VEC3","min":[-0.7,0,-0.7],"max":[0.7,0.25,0.7]},{"bufferView":1,"componentType":5126,"count":96,"type":"VEC3"},{"bufferView":2,"componentType":5123,"count":96,"type":"SCALAR"},{"bufferView":3,"componentType":5126,"count":96,"type":"VEC3","min":[-0.35,0.25,-0.35],"max":[0.35,1.6,0.35]},{"bufferView":4,"componentType":5126,"count":96,"type":"VEC3"},{"bufferView":5,"componentType":5123,"count":96,"type":"SCALAR"},{"bufferView":6,"componentType":5126,"count":72,"type":"VEC3","min":[-0.28,1.6,-0.24248711305964282],"max":[0.28,2.25,0.24248711305964285]},{"bufferView":7,"componentType":5126,"count":72,"type":"VEC3"},{"bufferView":8,"componentType":5123,"count":72,"type":"SCALAR"}],"bufferViews":[{"buffer":0,"byteOffset":0,"byteLength":1152,"target":34962},{"buffer":0,"byteOffset":1152,"byteLength":1152,"target":34962},{"buffer":0,"byteOffset":2304,"byteLength":192,"target":34963},{"buffer":0,"byteOffset":2496,"byteLength":1152,"target":34962},{"buffer":0,"byteOffset":3648,"byteLength":1152,"target":34962},{"buffer":0,"byteOffset":4800,"byteLength":192,"target":34963},{"buffer":0,"byteOffset":4992,"byteLength":864,"target":34962},{"buffer":0,"byteOffset":5856,"byteLength":864,"target":34962},{"buffer":0,"byteOffset":6720,"byteLength":144,"target":34963}],"buffers":[{"byteLength":6864,"uri":"data:application/octet-stream;base64,"}]}