<?xml version="1.0" encoding="UTF-8"?><svg id="Layer_1" xmlns="http://www.w3.org/2000/svg" viewBox="0 0 328.93 282.26"><defs><style>.cls-1,.cls-2{fill:none;}.cls-2{stroke:#fff;stroke-miterlimit:10;stroke-width:7px;}</style></defs><path class="cls-2" d="M260.87,46.43c54.68,49.94,62.83,114.99,64.44,132.26l-56.31,64.37c2.08-17.22,7.9-82.51-34.96-142.91C171.98,12.71,64.08,14.72,55.26,15.03c0,0,126.43-40.92,205.6,31.39Z"/><line class="cls-2" x1="266.57" y1="171.15" x2="318.56" y2="138.95"/><line class="cls-2" x1="245.36" y1="119.66" x2="298.74" y2="93.34"/><line class="cls-2" x1="219.39" y1="79.54" x2="265.08" y2="53.5"/><line class="cls-2" x1="183.71" y1="53.46" x2="228.2" y2="25.9"/><line class="cls-2" x1="147.75" y1="31.65" x2="186.96" y2="9.02"/><line class="cls-2" x1="119.52" y1="25.01" x2="153.18" y2="4.16"/><line class="cls-2" x1="94.68" y1="18.11" x2="121.4" y2="3.88"/><rect class="cls-1" x="152" y="191.06" width="5" height="6"/><path class="cls-2" d="M201.03,120.35c25.26,56.76,9.68,109.51,5.13,123.33l-64.91,30.58c7.38-12.54,33.78-60.79,21.12-121.61C144.02,64.57,60.38,29.88,53.5,27.16c0,0,110.95,11,147.53,93.19Z"/><line class="cls-2" x1="163.53" y1="218.15" x2="214.31" y2="210.86"/><line class="cls-2" x1="164.51" y1="171.44" x2="214.39" y2="169.14"/><line class="cls-2" x1="158.02" y1="131.88" x2="201.89" y2="127.2"/><line class="cls-2" x1="139.35" y1="99.84" x2="182.8" y2="93.6"/><line class="cls-2" x1="119.02" y1="71" x2="156.77" y2="66.77"/><line class="cls-2" x1="99.55" y1="56.41" x2="132.43" y2="51.69"/><line class="cls-2" x1="82.77" y1="42.77" x2="108.09" y2="40.8"/></svg>