<?xml version="1.0" encoding="UTF-8"?><svg id="Layer_1" xmlns="http://www.w3.org/2000/svg" viewBox="0 0 277.66 293.65"><defs><style>.cls-1{fill:none;stroke:#fff;stroke-miterlimit:10;stroke-width:5px;}</style></defs><circle class="cls-1" cx="138.83" cy="154.25" r="136.33"/><line class="cls-1" x1="273.24" y1="154.89" x2="2.5" y2="154.33"/><path class="cls-1" d="M10.82,112.65c17.14-9.83,64.86-34.37,131.28-32.55,67.17,1.84,113.53,29.52,129.86,40.32"/><path class="cls-1" d="M9.54,191.79c17.19,9.86,67.53,35.89,137.02,32.43,63.39-3.15,107.3-29.08,124.11-40.2"/><path class="cls-1" d="M143.31,19.84c7.17,13.48,32.62,64.6,32,140.28-.57,70.36-23.32,118.05-30.72,132.38"/><path class="cls-1" d="M137.55,19.84c-16.92,13.42-76.96,64.29-75.5,139.62,1.35,70.03,55.01,117.5,72.48,131.76"/><path class="cls-1" d="M138.83,18.56c-26.19,13.35-119.12,63.99-116.87,138.96,2.1,69.7,85.15,116.94,112.19,131.13"/><path class="cls-1" d="M138.83,18.56c18.45,13.48,83.89,64.6,82.31,140.28-1.48,70.36-59.97,118.05-79.01,132.38"/><path class="cls-1" d="M133.71,17.28c-6.6,13.42-30.01,64.29-29.44,139.62.53,70.03,21.45,117.5,28.27,131.76"/><path class="cls-1" d="M143.95,19.84c25.33,13.42,115.21,64.29,113.03,139.62-2.03,70.03-82.35,117.5-108.51,131.76"/><path class="cls-1" d="M5.7,140.16c17.56-8.09,66.45-28.29,134.5-26.79,68.81,1.51,116.31,24.3,133.04,33.19"/><path class="cls-1" d="M3.14,172.27c17.68,7.3,66.91,25.5,135.43,24.15,69.29-1.36,117.12-21.9,133.97-29.91"/><path class="cls-1" d="M28.74,73.05c14.62-7.16,55.32-25.02,111.97-23.7,57.29,1.34,96.83,21.5,110.76,29.36"/><path class="cls-1" d="M22.34,225.99c15.5,9.86,60.91,35.89,123.59,32.43,57.17-3.15,96.78-29.08,111.95-40.2"/></svg>