<?xml version="1.0" encoding="UTF-8"?><svg id="Layer_1" xmlns="http://www.w3.org/2000/svg" viewBox="0 0 609.5 340.22"><defs><style>.cls-1{fill:none;}.cls-1,.cls-2{stroke:#fff;stroke-miterlimit:10;stroke-width:4px;}.cls-2{fill:#fff;}</style></defs><path class="cls-2" d="M166.75,2C75.76,2,2,75.76,2,166.75s73.76,164.75,164.75,164.75,164.75-73.76,164.75-164.75S257.74,2,166.75,2ZM236.93,50.02c21.63,0,39.16,17.53,39.16,39.16s-17.53,39.15-39.16,39.15-39.15-17.53-39.15-39.15,17.53-39.16,39.15-39.16ZM26.38,140.89c0-21.62,17.53-39.15,39.16-39.15s39.15,17.53,39.15,39.15-17.53,39.16-39.15,39.16-39.16-17.53-39.16-39.16ZM90.65,279.05c-21.62,0-39.15-17.53-39.15-39.16s17.53-39.16,39.15-39.16,39.16,17.53,39.16,39.16-17.53,39.16-39.16,39.16ZM97.3,65.54c0-21.63,17.53-39.16,39.16-39.16s39.16,17.53,39.16,39.16-17.54,39.15-39.16,39.15-39.16-17.53-39.16-39.15ZM198.52,307.12c-21.63,0-39.16-17.53-39.16-39.16s17.53-39.15,39.16-39.15,39.15,17.53,39.15,39.15-17.53,39.16-39.15,39.16ZM272.4,224.38c-21.63,0-39.16-17.54-39.16-39.16s17.53-39.16,39.16-39.16,39.15,17.53,39.15,39.16-17.53,39.16-39.15,39.16Z"/><path class="cls-1" d="M65.54,180.05c-21.63,0-39.16-17.53-39.16-39.16s17.53-39.15,39.16-39.15,39.15,17.53,39.15,39.15-17.53,39.16-39.15,39.16Z"/><path class="cls-1" d="M129.81,239.89c0,21.63-17.53,39.16-39.16,39.16s-39.15-17.53-39.15-39.16,17.53-39.16,39.15-39.16,39.16,17.53,39.16,39.16Z"/><path class="cls-1" d="M136.46,104.69c-21.63,0-39.16-17.53-39.16-39.15s17.53-39.16,39.16-39.16,39.16,17.53,39.16,39.16-17.54,39.15-39.16,39.15Z"/><path class="cls-1" d="M237.67,267.96c0,21.63-17.53,39.16-39.15,39.16s-39.16-17.53-39.16-39.16,17.53-39.15,39.16-39.15,39.15,17.53,39.15,39.15Z"/><path class="cls-1" d="M197.78,89.18c0-21.63,17.53-39.16,39.15-39.16s39.16,17.53,39.16,39.16-17.53,39.15-39.16,39.15-39.15-17.53-39.15-39.15Z"/><path class="cls-1" d="M311.55,185.22c0,21.62-17.53,39.16-39.15,39.16s-39.16-17.54-39.16-39.16,17.53-39.16,39.16-39.16,39.15,17.53,39.15,39.16Z"/><path class="cls-1" d="M276.09,89.18c0,21.62-17.53,39.15-39.16,39.15s-39.15-17.53-39.15-39.15,17.53-39.16,39.15-39.16,39.16,17.53,39.16,39.16Z"/><path class="cls-1" d="M311.55,185.22c0,21.62-17.53,39.16-39.15,39.16s-39.16-17.54-39.16-39.16,17.53-39.16,39.16-39.16,39.15,17.53,39.15,39.16Z"/><path class="cls-1" d="M237.67,267.96c0,21.63-17.53,39.16-39.15,39.16s-39.16-17.53-39.16-39.16,17.53-39.15,39.16-39.15,39.15,17.53,39.15,39.15Z"/><path class="cls-1" d="M129.81,239.89c0,21.63-17.53,39.16-39.16,39.16s-39.15-17.53-39.15-39.16,17.53-39.16,39.15-39.16,39.16,17.53,39.16,39.16Z"/><path class="cls-1" d="M104.69,140.89c0,21.63-17.53,39.16-39.15,39.16s-39.16-17.53-39.16-39.16,17.53-39.15,39.16-39.15,39.15,17.53,39.15,39.15Z"/><path class="cls-1" d="M175.62,65.54c0,21.62-17.54,39.15-39.16,39.15s-39.16-17.53-39.16-39.15,17.53-39.16,39.16-39.16,39.16,17.53,39.16,39.16Z"/><path class="cls-1" d="M180.91,330.57c17.23.37,50.42-1.37,82.03-21.04,31.64-19.68,47.73-48.63,52.36-57.2,18.46-34.13,15.3-59.4,42.25-81.97,7.86-6.59,15.51-10.62,20.54-12.94"/><line class="cls-1" x1="341.47" y1="191" x2="367.11" y2="200.16"/><line class="cls-1" x1="357.55" y1="170.36" x2="385.15" y2="177.97"/><line class="cls-1" x1="357.01" y1="219.38" x2="334.04" y2="210.59"/><line class="cls-1" x1="351.61" y1="241" x2="325.93" y2="230.86"/><line class="cls-1" x1="342.91" y1="259.94" x2="319.18" y2="246.41"/><line class="cls-1" x1="329.31" y1="277.49" x2="308.36" y2="264.65"/><line class="cls-1" x1="318.5" y1="295.05" x2="295.53" y2="280.86"/><line class="cls-1" x1="300.93" y1="307.22" x2="282.01" y2="297.08"/><line class="cls-1" x1="290.54" y1="317.14" x2="267.82" y2="304.51"/><line class="cls-1" x1="271.88" y1="326.14" x2="249.58" y2="315.32"/><path class="cls-1" d="M244.18,332.89l-12.16-7.43-29.73,2.03,6.23,10.69c7.29.16,17.44-.07,29.12-1.86,15.92-2.45,34.68-7.83,52.91-19.17,31.64-19.68,47.73-48.63,52.36-57.2,12.68-23.44,15.16-42.7,24.2-59.78,4.12-7.79,9.61-15.12,18.04-22.19,7.86-6.59,15.51-10.62,20.54-12.94l-27.19-7.53"/></svg>