<?xml version="1.0" encoding="UTF-8"?><svg id="Layer_1" xmlns="http://www.w3.org/2000/svg" viewBox="0 0 583.31 296.72"><defs><style>.cls-1{fill:#fff;}.cls-1,.cls-2{stroke:#fff;stroke-miterlimit:10;stroke-width:4px;}.cls-2{fill:none;}</style></defs><path class="cls-1" d="M145.43,2C66.22,2,2,66.22,2,145.43s64.22,143.43,143.43,143.43,143.43-64.22,143.43-143.43S224.65,2,145.43,2ZM206.53,43.81c18.83,0,34.09,15.26,34.09,34.09s-15.26,34.08-34.09,34.08-34.08-15.26-34.08-34.08,15.26-34.09,34.08-34.09ZM23.23,122.92c0-18.82,15.26-34.08,34.09-34.08s34.08,15.26,34.08,34.08-15.26,34.09-34.08,34.09-34.09-15.26-34.09-34.09ZM79.18,243.21c-18.82,0-34.08-15.26-34.08-34.09s15.26-34.09,34.08-34.09,34.09,15.26,34.09,34.09-15.26,34.09-34.09,34.09ZM84.97,57.32c0-18.83,15.26-34.09,34.09-34.09s34.09,15.26,34.09,34.09-15.27,34.08-34.09,34.08-34.09-15.26-34.09-34.08ZM173.09,267.64c-18.83,0-34.09-15.26-34.09-34.09s15.26-34.08,34.09-34.08,34.08,15.26,34.08,34.08-15.26,34.09-34.08,34.09ZM237.42,195.61c-18.83,0-34.09-15.27-34.09-34.09s15.26-34.09,34.09-34.09,34.08,15.26,34.08,34.09-15.26,34.09-34.08,34.09Z"/><path class="cls-2" d="M57.32,157.01c-18.83,0-34.09-15.26-34.09-34.09s15.26-34.08,34.09-34.08,34.08,15.26,34.08,34.08-15.26,34.09-34.08,34.09Z"/><path class="cls-2" d="M113.27,209.11c0,18.83-15.26,34.09-34.09,34.09s-34.08-15.26-34.08-34.09,15.26-34.09,34.08-34.09,34.09,15.26,34.09,34.09Z"/><path class="cls-2" d="M119.06,91.4c-18.83,0-34.09-15.26-34.09-34.08s15.26-34.09,34.09-34.09,34.09,15.26,34.09,34.09-15.27,34.08-34.09,34.08Z"/><path class="cls-2" d="M207.18,233.55c0,18.83-15.26,34.09-34.08,34.09s-34.09-15.26-34.09-34.09,15.26-34.08,34.09-34.08,34.08,15.26,34.08,34.08Z"/><path class="cls-2" d="M172.45,77.9c0-18.83,15.26-34.09,34.08-34.09s34.09,15.26,34.09,34.09-15.26,34.08-34.09,34.08-34.08-15.26-34.08-34.08Z"/><path class="cls-2" d="M271.5,161.51c0,18.82-15.26,34.09-34.08,34.09s-34.09-15.27-34.09-34.09,15.26-34.09,34.09-34.09,34.08,15.26,34.08,34.09Z"/><path class="cls-2" d="M240.63,77.9c0,18.82-15.26,34.08-34.09,34.08s-34.08-15.26-34.08-34.08,15.26-34.09,34.08-34.09,34.09,15.26,34.09,34.09Z"/><path class="cls-2" d="M271.5,161.51c0,18.82-15.26,34.09-34.08,34.09s-34.09-15.27-34.09-34.09,15.26-34.09,34.09-34.09,34.08,15.26,34.08,34.09Z"/><path class="cls-2" d="M207.18,233.55c0,18.83-15.26,34.09-34.08,34.09s-34.09-15.26-34.09-34.09,15.26-34.08,34.09-34.08,34.08,15.26,34.08,34.08Z"/><path class="cls-2" d="M113.27,209.11c0,18.83-15.26,34.09-34.09,34.09s-34.08-15.26-34.08-34.09,15.26-34.09,34.08-34.09,34.09,15.26,34.09,34.09Z"/><path class="cls-2" d="M91.4,122.92c0,18.83-15.26,34.09-34.08,34.09s-34.09-15.26-34.09-34.09,15.26-34.08,34.09-34.08,34.08,15.26,34.08,34.08Z"/><path class="cls-2" d="M153.16,57.32c0,18.82-15.27,34.08-34.09,34.08s-34.09-15.26-34.09-34.08,15.26-34.09,34.09-34.09,34.09,15.26,34.09,34.09Z"/><path class="cls-2" d="M157.76,288.06c15,.32,43.9-1.2,71.42-18.31,27.55-17.14,41.55-42.34,45.59-49.8,16.07-29.71,13.32-51.71,36.78-71.37,6.85-5.74,13.5-9.25,17.88-11.26"/><line class="cls-2" x1="297.55" y1="166.55" x2="319.87" y2="174.52"/><line class="cls-2" x1="311.55" y1="148.58" x2="335.58" y2="155.2"/><line class="cls-2" x1="311.08" y1="191.25" x2="291.08" y2="183.61"/><line class="cls-2" x1="306.38" y1="210.08" x2="284.02" y2="201.25"/><line class="cls-2" x1="298.8" y1="226.57" x2="278.14" y2="214.78"/><line class="cls-2" x1="286.96" y1="241.84" x2="268.73" y2="230.67"/><line class="cls-2" x1="277.55" y1="257.14" x2="257.55" y2="244.79"/><line class="cls-2" x1="262.26" y1="267.73" x2="245.79" y2="258.9"/><line class="cls-2" x1="253.21" y1="276.37" x2="233.43" y2="265.37"/><line class="cls-2" x1="236.96" y1="284.2" x2="217.55" y2="274.79"/><path class="cls-2" d="M212.84,290.08l-10.59-6.47-25.88,1.76,5.42,9.31c6.35.14,15.19-.06,25.35-1.62,13.86-2.13,30.19-6.82,46.06-16.69,27.55-17.14,41.55-42.34,45.59-49.8,11.04-20.41,13.2-37.18,21.07-52.05,3.59-6.78,8.36-13.16,15.71-19.32,6.85-5.74,13.5-9.25,17.88-11.26l-23.68-6.56"/></svg>