<?xml version="1.0" encoding="UTF-8"?><svg id="Layer_1" xmlns="http://www.w3.org/2000/svg" viewBox="0 0 218 229.69"><defs><style>.cls-1{fill:none;stroke:#fff;stroke-miterlimit:10;stroke-width:5px;}</style></defs><circle class="cls-1" cx="109" cy="120.5" r="106.5"/><line class="cls-1" x1="214" y1="121" x2="2.5" y2="120.56"/><path class="cls-1" d="M9,88c13.39-7.68,50.67-26.85,102.55-25.43,52.47,1.43,88.69,23.06,101.45,31.5"/><path class="cls-1" d="M8,149.83c13.43,7.7,52.75,28.03,107.04,25.33,49.52-2.46,83.82-22.71,96.96-31.4"/><path class="cls-1" d="M112.5,15.5c5.6,10.53,25.48,50.46,25,109.59-.45,54.97-18.22,92.22-24,103.41"/><path class="cls-1" d="M108,15.5c-13.22,10.48-60.12,50.23-58.98,109.07,1.06,54.71,42.97,91.79,56.62,102.93"/><path class="cls-1" d="M109,14.5C88.54,24.93,15.94,64.49,17.7,123.06c1.64,54.45,66.52,91.36,87.65,102.44"/><path class="cls-1" d="M109,14.5c14.41,10.53,65.54,50.46,64.3,109.59-1.15,54.97-46.85,92.22-61.72,103.41"/><path class="cls-1" d="M105,13.5c-5.16,10.48-23.45,50.23-23,109.07.41,54.71,16.76,91.79,22.08,102.93"/><path class="cls-1" d="M113,15.5c19.79,10.48,90,50.23,88.3,109.07-1.58,54.71-64.33,91.79-84.77,102.93"/><path class="cls-1" d="M5,109.49c13.72-6.32,51.91-22.1,105.07-20.93,53.76,1.18,90.86,18.99,103.93,25.93"/><path class="cls-1" d="M3,134.58c13.81,5.7,52.27,19.92,105.8,18.87,54.13-1.06,91.49-17.11,104.65-23.37"/><path class="cls-1" d="M23,57.07c11.42-5.59,43.22-19.55,87.47-18.52,44.75,1.04,75.65,16.79,86.53,22.94"/><path class="cls-1" d="M18,176.54c12.11,7.7,47.58,28.03,96.55,25.33,44.66-2.46,75.6-22.71,87.45-31.4"/></svg>